<?xml version="1.0" standalone="no"?>
<!DOCTYPE svg PUBLIC "-//W3C//DTD SVG 20010904//EN"
 "http://www.w3.org/TR/2001/REC-SVG-20010904/DTD/svg10.dtd">
<svg version="1.0" xmlns="http://www.w3.org/2000/svg"
 width="300.000000pt" height="300.000000pt" viewBox="0 0 300.000000 300.000000"
 preserveAspectRatio="xMidYMid meet">
<metadata>
Created by potrace 1.14, written by Peter Selinger 2001-2017
</metadata>
<g transform="translate(0.000000,300.000000) scale(0.100000,-0.100000)"
fill="#000000" stroke="none">
<path d="M2061 2984 c-91 -13 -316 -77 -335 -95 -6 -5 -16 -9 -23 -9 -21 0
-200 -92 -283 -145 -178 -114 -342 -257 -445 -390 -71 -92 -85 -115 -85 -145
0 -32 32 -80 57 -86 44 -11 72 6 130 79 58 73 190 209 253 260 171 140 415
262 629 317 102 26 122 29 256 36 137 8 249 -12 354 -61 40 -19 85 -35 100
-35 58 0 97 86 64 137 -30 45 -170 108 -297 134 -77 16 -269 18 -375 3z"/>
<path d="M934 2875 c-47 -20 -155 -144 -254 -293 -186 -278 -266 -552 -235
-797 15 -118 79 -269 123 -291 34 -17 73 -3 99 35 23 35 23 65 -4 116 -87 171
-75 376 35 620 34 75 99 194 112 205 4 3 28 36 56 75 27 38 74 97 105 130 68
73 80 94 73 130 -12 65 -56 93 -110 70z"/>
<path d="M1949 2376 c-2 -2 -29 -6 -59 -9 -59 -7 -203 -41 -235 -57 -11 -5
-48 -21 -82 -35 -296 -120 -601 -427 -663 -664 -53 -204 26 -403 193 -482 140
-66 294 -25 429 116 65 68 48 158 -33 171 -32 5 -40 1 -94 -50 -34 -32 -78
-62 -102 -70 -51 -18 -117 -11 -160 15 -39 24 -83 112 -83 164 0 103 62 221
183 350 246 264 588 398 922 362 179 -20 387 -122 480 -235 11 -13 30 -36 42
-50 12 -14 27 -37 35 -51 7 -14 16 -28 19 -31 9 -8 66 -161 73 -195 10 -56 17
-110 21 -175 6 -84 27 -114 82 -118 35 -3 44 1 63 25 21 26 22 35 17 138 -13
276 -135 522 -338 687 -104 84 -285 160 -439 185 -37 6 -266 14 -271 9z"/>
<path d="M1668 1873 c-88 -30 -163 -82 -209 -146 -38 -53 -39 -99 -2 -133 39
-36 77 -30 134 22 80 73 154 100 219 79 123 -38 162 -200 83 -350 -81 -156
-281 -338 -476 -433 -77 -39 -218 -89 -269 -97 -271 -42 -490 -2 -668 123 -56
38 -111 94 -199 200 -40 48 -123 22 -135 -42 -10 -51 21 -104 117 -201 115
-115 221 -183 358 -229 199 -67 457 -68 666 -1 40 12 73 21 73 19 0 -12 265
135 329 182 93 69 249 227 300 303 134 200 151 407 47 564 -46 68 -127 130
-186 143 -57 12 -142 11 -182 -3z"/>
<path d="M38 1666 c-30 -23 -39 -65 -33 -155 9 -111 22 -179 40 -207 20 -31
69 -40 101 -19 42 27 49 57 36 136 -7 38 -12 93 -12 121 0 28 -5 66 -12 84
-17 49 -81 70 -120 40z"/>
<path d="M2364 1480 c-29 -11 -54 -48 -54 -78 0 -13 14 -54 30 -92 77 -175 54
-392 -67 -633 -32 -64 -118 -206 -132 -217 -3 -3 -22 -25 -41 -50 -19 -25 -51
-63 -71 -85 -91 -98 -101 -115 -93 -162 6 -36 48 -73 83 -73 53 0 237 210 341
390 140 240 195 424 192 642 -1 135 -67 325 -122 353 -33 17 -36 17 -66 5z"/>
<path d="M2837 1164 c-43 -42 -39 -107 8 -138 57 -37 125 2 125 71 -1 42 -13
63 -47 81 -34 18 -58 14 -86 -14z"/>
<path d="M1983 864 c-7 -3 -45 -44 -84 -92 -86 -103 -178 -194 -251 -248 -429
-321 -927 -426 -1247 -265 -70 36 -100 38 -132 12 -20 -16 -24 -29 -24 -69 0
-44 4 -54 30 -76 26 -23 146 -79 194 -92 121 -32 163 -36 326 -31 174 5 234
16 392 67 351 115 726 392 895 660 44 70 -25 163 -99 134z"/>
</g>
</svg>
